<svg xmlns="http://www.w3.org/2000/svg" xmlns:xlink="http://www.w3.org/1999/xlink" width="512" height="512" x="0" y="0" viewBox="0 0 96 96" style="enable-background:new 0 0 512 512" xml:space="preserve" class=""><g><path d="M46.286 71.939a23.786 23.786 0 0 1-8.43-2.182 2 2 0 0 0-2.659.967l-2.51 5.382a32.136 32.136 0 0 1-12.793-12.794l5.381-2.509a1.998 1.998 0 0 0 .967-2.659 23.807 23.807 0 0 1-2.182-8.432A4.008 4.008 0 0 0 20.078 46H6a2 2 0 0 0-2 2c0 24.262 19.738 44 44 44a2 2 0 0 0 2-2V75.922a4.01 4.01 0 0 0-3.714-3.983zM46 87.95C25.531 86.938 9.062 70.468 8.05 49.999l12.021-.004c.194 2.759.787 5.44 1.766 7.998l-5.503 2.566a1.998 1.998 0 0 0-.968 2.659 36.144 36.144 0 0 0 17.416 17.416 2 2 0 0 0 2.659-.968l2.566-5.503A27.552 27.552 0 0 0 46 75.921zM44 44v-2c0-1.103-.897-2-2-2h-6a2 2 0 0 1 0-4h6c3.309 0 6 2.691 6 6v2c0 3.309-2.691 6-6 6h-2c-1.103 0-2 .897-2 2v4h8a2 2 0 0 1 0 4H36a2 2 0 0 1-2-2v-6c0-3.309 2.691-6 6-6h2c1.103 0 2-.897 2-2zm18 6h-8a2 2 0 0 1-2-2V38a2 2 0 0 1 4 0v8h6v-8a2 2 0 0 1 4 0v20a2 2 0 0 1-4 0zm30-2c0 19.898-13.41 37.38-32.61 42.512a2.004 2.004 0 0 1-2.45-1.416 2.001 2.001 0 0 1 1.416-2.449 39.781 39.781 0 0 0 16.475-8.987l-4.203-4.203a2 2 0 1 1 2.828-2.828l4.206 4.206a40.028 40.028 0 0 0 10.283-24.834H82a2 2 0 0 1 0-4h5.949c-.471-9.524-4.29-18.182-10.301-24.82l-4.193 4.193c-.391.391-.902.586-1.414.586s-1.023-.195-1.414-.586a2 2 0 0 1 0-2.828l4.193-4.193C68.182 12.341 59.524 8.522 50 8.051V14a2 2 0 0 1-4 0V8.055a40.03 40.03 0 0 0-24.834 10.283l4.206 4.206a2 2 0 1 1-2.828 2.828l-4.203-4.203a39.777 39.777 0 0 0-8.987 16.474 2 2 0 1 1-3.865-1.033C10.62 17.41 28.102 4 48 4c24.262 0 44 19.738 44 44z" fill="" opacity="1" data-original="" class=""></path></g></svg>